<svg width="1246" height="1372" viewBox="0 0 1246 1372" fill="none" xmlns="http://www.w3.org/2000/svg">
<g filter="url(#filter0_d_2061_20)">
<path d="M286.23 1191.48C284.366 1190.76 284.723 1189.02 285.898 1187.4C300.465 1167.35 317.733 1136.48 322.691 1111.71C323.394 1108.2 324.784 1104.86 326.803 1101.9C348.48 1070.14 352.297 1021.88 369.884 992.208C387.011 963.311 402.353 910.151 413.986 878.455C421.695 857.448 423.391 833.869 431.375 813.471C435.711 802.391 446.027 789.738 444.961 778.093C442.459 750.762 416.894 736.849 393.852 726.694L392.633 726.157C364.951 713.962 335.584 701.024 318.008 674.851C307.948 659.869 281.912 651.091 280.164 631.99C279.131 620.713 277.265 610.273 274.819 599.978C272.271 589.254 269.094 578.687 265.576 567.496C262.12 556.502 259.476 543.562 257.371 530.021C253.618 505.879 251.581 479.828 249.72 459.501C245.912 417.894 301.937 380.246 319.908 345.798C336.504 313.983 370.85 290.902 378.41 252.669C384.374 222.51 412.316 194.753 412.962 161.733C413.129 153.225 421.156 114.105 431.435 111.55C463.006 103.7 491.47 182.036 510.076 210.665C511.07 212.194 512.313 213.531 513.76 214.641C560.27 250.323 636.359 233.111 700.23 246.507C728.939 252.529 763.865 253.827 789.053 271.156C805.738 282.635 835.6 276.247 856.062 265.022C873.758 255.315 872.538 249.729 891.625 244.429C918.682 236.916 941.053 217.4 969.632 213.177C995.07 209.419 998.08 258.962 1008.66 277.873C1021.38 300.595 1015.98 345.919 1018.37 372.072L1021.25 403.508C1022.4 416.066 1016.93 437.551 1020.88 449.863C1029.51 476.787 1054.16 496.301 1056.98 527.018C1059.77 557.492 1062.51 589.271 1054.52 618.808C1049.48 637.474 1043.19 656.409 1036.53 675.097C1031.96 687.9 1027.22 700.587 1022.59 712.991L1022.47 713.308C1019.11 722.293 1018.65 736.167 1016.03 747.155C1015.05 751.277 1013.76 754.993 1011.9 757.892C1008 763.958 1003.05 770.86 1002.1 778.294C998.945 802.827 965.764 812.206 952.969 831.554C944.213 844.794 939.714 873.951 939.997 889.647C940.045 892.316 939.776 894.978 939.027 897.541C934.788 912.049 929.376 936.533 930.568 949.555C931.74 962.349 918.802 1011.44 915.75 1023.78C912.605 1038.7 910.344 1068.31 905.44 1082.35L893.462 1126.06C885.55 1159.78 879.397 1235.16 879.865 1215.14C879.371 1217.77 878.869 1219.77 878.525 1221.02C878.252 1222.01 878.002 1223 877.836 1224.01C876.995 1229.13 874.339 1245.88 874.339 1253.24C874.339 1255.89 324.923 1206.57 286.23 1191.48Z" fill="black"/>
<path d="M274.819 599.978C277.265 610.273 279.131 620.713 280.164 631.99C281.912 651.091 307.948 659.869 318.008 674.851C335.584 701.024 364.951 713.962 392.633 726.157L393.852 726.694C416.894 736.849 442.459 750.762 444.961 778.093C446.027 789.738 435.711 802.391 431.375 813.471C423.391 833.869 421.695 857.448 413.986 878.455C402.353 910.151 387.011 963.311 369.884 992.208C352.297 1021.88 348.48 1070.14 326.803 1101.9C324.784 1104.86 323.394 1108.2 322.691 1111.71C317.733 1136.48 300.465 1167.35 285.898 1187.4C284.723 1189.02 284.366 1190.76 286.23 1191.48C324.923 1206.57 874.339 1255.89 874.339 1253.24C874.339 1245.88 876.995 1229.13 877.836 1224.01C878.002 1223 878.252 1222.01 878.525 1221.02C878.869 1219.77 879.371 1217.77 879.865 1215.14M274.819 599.978C272.271 589.254 269.094 578.687 265.576 567.496C262.12 556.502 259.476 543.562 257.371 530.021M274.819 599.978L156.429 614.33M274.819 599.978L320.687 594.417M257.371 530.021C253.618 505.879 251.581 479.828 249.72 459.501C245.912 417.894 301.937 380.246 319.908 345.798C336.504 313.983 370.85 290.902 378.41 252.669C384.374 222.51 412.316 194.753 412.962 161.733C413.129 153.225 421.156 114.105 431.435 111.55C463.006 103.7 491.47 182.036 510.076 210.665C511.07 212.194 512.313 213.531 513.76 214.641C560.27 250.323 636.359 233.111 700.23 246.507C728.939 252.529 763.865 253.827 789.053 271.156C805.738 282.635 835.6 276.247 856.062 265.022C873.758 255.315 872.538 249.729 891.625 244.429C918.682 236.916 941.053 217.4 969.632 213.177C995.07 209.419 998.08 258.962 1008.66 277.873C1021.38 300.595 1015.98 345.919 1018.37 372.072L1021.25 403.508C1022.4 416.066 1016.93 437.551 1020.88 449.863C1029.51 476.787 1054.16 496.301 1056.98 527.018C1059.77 557.492 1062.51 589.271 1054.52 618.808C1049.48 637.474 1043.19 656.409 1036.53 675.097M257.371 530.021C210.051 531.511 163.445 530.793 115 535.228M257.371 530.021C276.243 529.427 295.229 528.482 314.49 526.719M1036.53 675.097C1031.96 687.9 1027.22 700.587 1022.59 712.991L1022.47 713.308C1019.11 722.293 1018.65 736.167 1016.03 747.155M1036.53 675.097C1030.54 674.55 1024.76 673.878 1019.32 672.96C997.206 669.231 967.796 657.088 946.945 658.997M1036.53 675.097C1068.09 677.983 1105.56 677.402 1130.6 690.948M1016.03 747.155C1015.05 751.277 1013.76 754.993 1011.9 757.892C1008 763.958 1003.05 770.86 1002.1 778.294C998.945 802.827 965.764 812.206 952.969 831.554C944.213 844.794 939.715 873.951 939.997 889.647C940.045 892.316 939.776 894.978 939.027 897.541C934.788 912.049 929.376 936.533 930.568 949.555C931.74 962.349 918.802 1011.44 915.75 1023.78C912.605 1038.7 910.344 1068.31 905.44 1082.35L893.462 1126.06C885.55 1159.78 879.397 1235.16 879.865 1215.14M1016.03 747.155C1007.77 744.345 999.414 741.938 991.04 740.57C975.177 737.978 953.268 740.562 939.047 732.868M1016.03 747.155C1025.47 750.364 1034.78 754.098 1043.87 757.406C1054.66 761.336 1084.07 764.442 1089.24 772.759M879.865 1215.14V1215.14C879.921 1212.76 880.305 1212.8 879.865 1215.14V1215.14ZM456.317 582.002C477.612 601.921 476.119 629.424 509.091 636.77C541.687 644.032 561.003 619.384 591.532 618.387C608.029 617.849 611.9 687.355 639.962 696.851C656.289 702.376 678.02 699.225 695.256 696.726L696.38 696.563C713.719 694.053 719.534 670.062 737.763 668.393M447.021 480.454C446.019 469.508 438.828 461.081 444.59 457.445C448.399 455.041 452.911 453.764 456.778 451.454C471.107 442.896 486.562 451.25 496.089 459.166C514.172 474.19 449.401 506.451 447.021 480.454ZM447.021 480.454C445.614 465.087 455.669 455.281 473.872 453.614M753.287 554.817C739.909 541.413 744.697 519.16 754.294 507.629C763.891 496.098 794.09 507.069 800.4 516.724C811.16 533.187 766.665 568.221 753.287 554.817Z" stroke="black" stroke-width="221" stroke-linecap="round" stroke-linejoin="round"/>
</g>
<g filter="url(#filter1_d_2061_20)">
<path d="M286.23 1191.48C284.366 1190.76 284.723 1189.02 285.898 1187.4C300.465 1167.35 317.733 1136.48 322.691 1111.71C323.394 1108.2 324.784 1104.86 326.803 1101.9C348.48 1070.14 352.297 1021.88 369.884 992.208C387.011 963.311 402.353 910.151 413.986 878.455C421.695 857.448 423.391 833.869 431.375 813.471C435.711 802.391 446.027 789.738 444.961 778.093C442.459 750.762 416.894 736.849 393.852 726.694L392.633 726.157C364.951 713.962 335.584 701.024 318.008 674.851C307.948 659.869 281.912 651.091 280.164 631.99C279.131 620.713 277.265 610.273 274.819 599.978C272.271 589.254 269.094 578.687 265.576 567.496C262.12 556.502 259.476 543.562 257.371 530.021C253.618 505.879 251.581 479.828 249.72 459.501C245.912 417.894 301.937 380.246 319.908 345.798C336.504 313.983 370.85 290.902 378.41 252.669C384.374 222.51 412.316 194.753 412.962 161.733C413.129 153.225 421.156 114.105 431.435 111.55C463.006 103.7 491.47 182.036 510.076 210.665C511.07 212.194 512.313 213.531 513.76 214.641C560.27 250.323 636.359 233.111 700.23 246.507C728.939 252.529 763.865 253.827 789.053 271.156C805.738 282.635 835.6 276.247 856.062 265.022C873.758 255.315 872.538 249.729 891.625 244.429C918.682 236.916 941.053 217.4 969.632 213.177C995.07 209.419 998.08 258.962 1008.66 277.873C1021.38 300.595 1015.98 345.919 1018.37 372.072L1021.25 403.508C1022.4 416.066 1016.93 437.551 1020.88 449.863C1029.51 476.787 1054.16 496.301 1056.98 527.018C1059.77 557.492 1062.51 589.271 1054.52 618.808C1049.48 637.474 1043.19 656.409 1036.53 675.097C1031.96 687.9 1027.22 700.587 1022.59 712.991L1022.47 713.308C1019.11 722.293 1018.65 736.167 1016.03 747.155C1015.05 751.277 1013.76 754.993 1011.9 757.892C1008 763.958 1003.05 770.86 1002.1 778.294C998.945 802.827 965.764 812.206 952.969 831.554C944.213 844.794 939.714 873.951 939.997 889.647C940.045 892.316 939.776 894.978 939.027 897.541C934.788 912.049 929.376 936.533 930.568 949.555C931.74 962.349 918.802 1011.44 915.75 1023.78C912.605 1038.7 910.344 1068.31 905.44 1082.35L893.462 1126.06C885.55 1159.78 879.397 1235.16 879.865 1215.14C879.371 1217.77 878.869 1219.77 878.525 1221.02C878.252 1222.01 878.002 1223 877.836 1224.01C876.995 1229.13 874.339 1245.88 874.339 1253.24C874.339 1255.89 324.923 1206.57 286.23 1191.48Z" fill="black"/>
<path d="M274.819 599.978C277.265 610.273 279.131 620.713 280.164 631.99C281.912 651.091 307.948 659.869 318.008 674.851C335.584 701.024 364.951 713.962 392.633 726.157L393.852 726.694C416.894 736.849 442.459 750.762 444.961 778.093C446.027 789.738 435.711 802.391 431.375 813.471C423.391 833.869 421.695 857.448 413.986 878.455C402.353 910.151 387.011 963.311 369.884 992.208C352.297 1021.88 348.48 1070.14 326.803 1101.9C324.784 1104.86 323.394 1108.2 322.691 1111.71C317.733 1136.48 300.465 1167.35 285.898 1187.4C284.723 1189.02 284.366 1190.76 286.23 1191.48C324.923 1206.57 874.339 1255.89 874.339 1253.24C874.339 1245.88 876.995 1229.13 877.836 1224.01C878.002 1223 878.252 1222.01 878.525 1221.02C878.869 1219.77 879.371 1217.77 879.865 1215.14M274.819 599.978C272.271 589.254 269.094 578.687 265.576 567.496C262.12 556.502 259.476 543.562 257.371 530.021M274.819 599.978L156.429 614.33M274.819 599.978L320.687 594.417M257.371 530.021C253.618 505.879 251.581 479.828 249.72 459.501C245.912 417.894 301.937 380.246 319.908 345.798C336.504 313.983 370.85 290.902 378.41 252.669C384.374 222.51 412.316 194.753 412.962 161.733C413.129 153.225 421.156 114.105 431.435 111.55C463.006 103.7 491.47 182.036 510.076 210.665C511.07 212.194 512.313 213.531 513.76 214.641C560.27 250.323 636.359 233.111 700.23 246.507C728.939 252.529 763.865 253.827 789.053 271.156C805.738 282.635 835.6 276.247 856.062 265.022C873.758 255.315 872.538 249.729 891.625 244.429C918.682 236.916 941.053 217.4 969.632 213.177C995.07 209.419 998.08 258.962 1008.66 277.873C1021.38 300.595 1015.98 345.919 1018.37 372.072L1021.25 403.508C1022.4 416.066 1016.93 437.551 1020.88 449.863C1029.51 476.787 1054.16 496.301 1056.98 527.018C1059.77 557.492 1062.51 589.271 1054.52 618.808C1049.48 637.474 1043.19 656.409 1036.53 675.097M257.371 530.021C210.051 531.511 163.445 530.793 115 535.228M257.371 530.021C276.243 529.427 295.229 528.482 314.49 526.719M1036.53 675.097C1031.96 687.9 1027.22 700.587 1022.59 712.991L1022.47 713.308C1019.11 722.293 1018.65 736.167 1016.03 747.155M1036.53 675.097C1030.54 674.55 1024.76 673.878 1019.32 672.96C997.206 669.231 967.796 657.088 946.945 658.997M1036.53 675.097C1068.09 677.983 1105.56 677.402 1130.6 690.948M1016.03 747.155C1015.05 751.277 1013.76 754.993 1011.9 757.892C1008 763.958 1003.05 770.86 1002.1 778.294C998.945 802.827 965.764 812.206 952.969 831.554C944.213 844.794 939.715 873.951 939.997 889.647C940.045 892.316 939.776 894.978 939.027 897.541C934.788 912.049 929.376 936.533 930.568 949.555C931.74 962.349 918.802 1011.44 915.75 1023.78C912.605 1038.7 910.344 1068.31 905.44 1082.35L893.462 1126.06C885.55 1159.78 879.397 1235.16 879.865 1215.14M1016.03 747.155C1007.77 744.345 999.414 741.938 991.04 740.57C975.177 737.978 953.268 740.562 939.047 732.868M1016.03 747.155C1025.47 750.364 1034.78 754.098 1043.87 757.406C1054.66 761.336 1084.07 764.442 1089.24 772.759M879.865 1215.14V1215.14C879.921 1212.76 880.305 1212.8 879.865 1215.14V1215.14ZM456.317 582.002C477.612 601.921 476.119 629.424 509.091 636.77C541.687 644.032 561.003 619.384 591.532 618.387C608.029 617.849 611.9 687.355 639.962 696.851C656.289 702.376 678.02 699.225 695.256 696.726L696.38 696.563C713.719 694.053 719.534 670.062 737.763 668.393M447.021 480.454C452.174 476.458 446.171 471.304 449.852 459.443C450.638 456.912 452.205 454.674 454.332 453.092C468.143 442.815 483.405 449.53 493.598 457.196C495.282 458.462 496.74 460.048 497.591 461.975C509.382 488.678 452.238 515.309 447.021 480.454ZM447.021 480.454C445.614 465.087 455.669 455.281 473.872 453.614M753.287 554.817C728.957 533.914 744.697 519.16 754.294 507.629C763.504 496.563 791.688 506.221 799.523 515.551C800.154 516.302 800.753 517.1 801.359 517.872C819.579 541.077 777.219 575.379 753.287 554.817Z" stroke="white" stroke-width="65" stroke-linecap="round" stroke-linejoin="round"/>
</g>
<defs>
<filter id="filter0_d_2061_20" x="0.492676" y="0.374176" width="1244.63" height="1371.47" filterUnits="userSpaceOnUse" color-interpolation-filters="sRGB">
<feFlood flood-opacity="0" result="BackgroundImageFix"/>
<feColorMatrix in="SourceAlpha" type="matrix" values="0 0 0 0 0 0 0 0 0 0 0 0 0 0 0 0 0 0 127 0" result="hardAlpha"/>
<feOffset dy="4"/>
<feGaussianBlur stdDeviation="2"/>
<feComposite in2="hardAlpha" operator="out"/>
<feColorMatrix type="matrix" values="0 0 0 0 0 0 0 0 0 0 0 0 0 0 0 0 0 0 0.25 0"/>
<feBlend mode="normal" in2="BackgroundImageFix" result="effect1_dropShadow_2061_20"/>
<feBlend mode="normal" in="SourceGraphic" in2="effect1_dropShadow_2061_20" result="shape"/>
</filter>
<filter id="filter1_d_2061_20" x="78.498" y="78.4632" width="1088.61" height="1215.38" filterUnits="userSpaceOnUse" color-interpolation-filters="sRGB">
<feFlood flood-opacity="0" result="BackgroundImageFix"/>
<feColorMatrix in="SourceAlpha" type="matrix" values="0 0 0 0 0 0 0 0 0 0 0 0 0 0 0 0 0 0 127 0" result="hardAlpha"/>
<feOffset dy="4"/>
<feGaussianBlur stdDeviation="2"/>
<feComposite in2="hardAlpha" operator="out"/>
<feColorMatrix type="matrix" values="0 0 0 0 0 0 0 0 0 0 0 0 0 0 0 0 0 0 0.25 0"/>
<feBlend mode="normal" in2="BackgroundImageFix" result="effect1_dropShadow_2061_20"/>
<feBlend mode="normal" in="SourceGraphic" in2="effect1_dropShadow_2061_20" result="shape"/>
</filter>
</defs>
</svg>
